<svg width="200" height="50" viewBox="0 0 200 50" fill="none" xmlns="http://www.w3.org/2000/svg">
<path d="M101.788 31.4897H95.6917L85.0664 17.8431V31.4897H78.0389V6.13513H84.2076L94.7769 19.7258V6.13513H101.788V31.4897Z" fill="#0E1226"/>
<path d="M105.797 21.7765C105.797 20.3609 106.032 19.0208 106.504 17.7591C106.977 16.4974 107.66 15.398 108.555 14.458C109.45 13.5208 110.544 12.7738 111.837 12.2199C113.129 11.666 114.595 11.389 116.237 11.389C117.381 11.389 118.403 11.5541 119.303 11.8842C120.204 12.2143 120.99 12.6088 121.662 13.0676L121.886 12.0408H127.682V31.4841H121.886L121.662 30.4406C120.99 30.9134 120.199 31.3135 119.284 31.6436C118.369 31.9737 117.348 32.1388 116.218 32.1388C114.589 32.1388 113.132 31.8646 111.845 31.3191C110.558 30.7735 109.467 30.0294 108.572 29.0922C107.677 28.155 106.991 27.0527 106.513 25.791C106.034 24.5321 105.797 23.1921 105.797 21.7765ZM112.64 21.7569C112.64 22.4787 112.751 23.1277 112.975 23.704C113.199 24.2831 113.507 24.7755 113.898 25.1867C114.29 25.598 114.743 25.9113 115.258 26.1295C115.773 26.3477 116.33 26.4568 116.925 26.4568C117.521 26.4568 118.075 26.3477 118.584 26.1295C119.094 25.9113 119.541 25.6008 119.927 25.1979C120.313 24.7951 120.613 24.3027 120.831 23.7264C121.049 23.1473 121.158 22.4927 121.158 21.7597C121.158 21.0519 121.046 20.4112 120.822 19.8405C120.599 19.2698 120.294 18.7803 119.908 18.3774C119.522 17.9745 119.071 17.664 118.556 17.4458C118.042 17.2276 117.485 17.1185 116.889 17.1185C116.279 17.1185 115.717 17.2276 115.202 17.4458C114.687 17.664 114.24 17.9717 113.859 18.369C113.479 18.7663 113.182 19.2558 112.964 19.8321C112.746 20.4057 112.64 21.0491 112.64 21.7569Z" fill="#0E1226"/>
<path d="M138.271 25.2623C138.333 25.7351 138.562 26.0988 138.962 26.3533C139.359 26.6079 139.883 26.7366 140.529 26.7366C141.298 26.7366 141.844 26.6415 142.16 26.4485C142.476 26.2554 142.635 25.9869 142.635 25.6372C142.635 25.4022 142.532 25.2147 142.328 25.0776C142.123 24.9406 141.821 24.8175 141.424 24.7056C141.027 24.5936 140.529 24.4789 139.933 24.3614C139.337 24.244 138.64 24.0845 137.846 23.8859C137.51 23.8103 137.138 23.718 136.727 23.6061C136.316 23.4942 135.904 23.3459 135.487 23.1585C135.071 22.971 134.668 22.736 134.276 22.4507C133.884 22.1653 133.538 21.8156 133.233 21.4072C132.928 20.9959 132.684 20.5064 132.505 19.9357C132.326 19.3649 132.234 18.6991 132.234 17.941C132.234 15.8036 132.989 14.1782 134.5 13.0648C136.011 11.9513 138.268 11.3974 141.276 11.3974C142.532 11.3974 143.656 11.5597 144.65 11.8814C145.643 12.2059 146.485 12.6619 147.176 13.2522C147.867 13.8425 148.39 14.5503 148.751 15.3784C149.112 16.2065 149.291 17.1213 149.291 18.1284L142.392 18.1088C142.367 17.7619 142.224 17.457 141.964 17.194C141.704 16.9338 141.304 16.8024 140.772 16.8024C140.224 16.8024 139.799 16.9087 139.494 17.1185C139.189 17.3311 139.043 17.5773 139.054 17.8654C139.054 18.0529 139.11 18.2011 139.222 18.3131C139.334 18.425 139.51 18.5201 139.754 18.6012C139.997 18.6823 140.313 18.7607 140.705 18.8334C141.097 18.9089 141.572 18.9901 142.132 19.0768C143.212 19.2754 144.222 19.5048 145.162 19.7678C146.099 20.028 146.913 20.3805 147.604 20.8225C148.295 21.2645 148.835 21.8324 149.226 22.529C149.618 23.2256 149.814 24.1069 149.814 25.1756C149.814 26.3925 149.571 27.4444 149.087 28.3256C148.603 29.2097 147.934 29.9315 147.084 30.4966C146.233 31.0617 145.223 31.4813 144.054 31.7555C142.884 32.0297 141.623 32.1667 140.269 32.1667C138.677 32.1667 137.326 31.9597 136.215 31.5429C135.101 31.126 134.201 30.5889 133.512 29.9315C132.821 29.274 132.323 28.5327 132.013 27.713C131.702 26.8933 131.546 26.0736 131.546 25.2511L138.271 25.2623Z" fill="#0E1226"/>
<path d="M152.944 6.99119C152.944 6.53238 153.037 6.09316 153.224 5.67632C153.412 5.25948 153.677 4.89579 154.027 4.58526C154.374 4.27473 154.794 4.02854 155.286 3.84949C155.776 3.67045 156.321 3.57812 156.917 3.57812C157.527 3.57812 158.075 3.66765 158.568 3.84949C159.057 4.02854 159.477 4.27473 159.827 4.58526C160.173 4.89579 160.442 5.25948 160.629 5.67632C160.817 6.09316 160.909 6.52959 160.909 6.99119C160.909 7.46398 160.817 7.9088 160.629 8.32284C160.442 8.73969 160.176 9.10337 159.827 9.41391C159.48 9.72444 159.054 9.96783 158.559 10.1413C158.061 10.3147 157.51 10.4015 156.9 10.4015C156.304 10.4015 155.764 10.3119 155.278 10.1301C154.794 9.95104 154.38 9.70486 154.038 9.39432C153.697 9.08379 153.428 8.7229 153.235 8.31165C153.04 7.906 152.944 7.46398 152.944 6.99119Z" fill="#1F63FB"/>
<path d="M160.308 12.0436H153.428V31.4869H160.308V12.0436Z" fill="#0E1226"/>
<path d="M198.21 31.4897H191.35V21.217C191.35 19.8238 191.151 18.7942 190.754 18.1228C190.357 17.4514 189.716 17.1157 188.835 17.1157C187.741 17.1157 186.893 17.4822 186.289 18.2151C185.685 18.9481 185.371 19.9497 185.346 21.217V31.4897H178.467V21.217C178.467 19.8238 178.271 18.7942 177.879 18.1228C177.488 17.4514 176.844 17.1157 175.949 17.1157C174.83 17.1157 173.968 17.5018 173.367 18.2711C172.763 19.0432 172.463 20.1175 172.463 21.4967V31.4897H165.64V12.0464H171.104L171.439 13.1263C172.161 12.6675 172.992 12.2619 173.938 11.915C174.883 11.5681 175.913 11.3918 177.032 11.3918C178.263 11.3918 179.368 11.5904 180.35 11.9877C181.332 12.385 182.177 12.9389 182.884 13.6467C183.282 13.3473 183.721 13.062 184.199 12.7878C184.678 12.5136 185.201 12.2758 185.766 12.0688C186.331 11.8646 186.938 11.6995 187.584 11.5737C188.231 11.4506 188.927 11.3862 189.671 11.3862C191.087 11.3862 192.332 11.6128 193.4 12.066C194.469 12.5192 195.359 13.1655 196.067 14.0048C196.774 14.844 197.309 15.8596 197.67 17.0541C198.031 18.2487 198.21 19.5832 198.21 21.0631V31.4897Z" fill="#0E1226"/>
<path d="M78.9257 46.0708V38.5145H82.2213C82.5654 38.5145 82.8787 38.562 83.1641 38.6572C83.4466 38.7523 83.69 38.8866 83.8915 39.0656C84.0929 39.2447 84.2496 39.4601 84.3615 39.7119C84.4734 39.9664 84.5293 40.249 84.5293 40.5651C84.5293 40.733 84.5041 40.8924 84.4538 41.0491C84.4034 41.2058 84.3363 41.3484 84.2468 41.4827C84.1572 41.617 84.0565 41.7345 83.9418 41.8352C83.8243 41.9359 83.7012 42.0171 83.5669 42.0702C83.7572 42.1346 83.9334 42.2213 84.1041 42.336C84.2719 42.4507 84.4202 42.585 84.5461 42.7416C84.672 42.8983 84.7727 43.0718 84.8454 43.2648C84.9182 43.4578 84.9573 43.6593 84.9573 43.8691C84.9573 44.2468 84.8874 44.5741 84.7503 44.8482C84.6132 45.1252 84.4314 45.3518 84.2048 45.5308C83.9782 45.7099 83.7208 45.8442 83.4299 45.9337C83.1389 46.0232 82.8424 46.068 82.5374 46.068H78.9257V46.0708ZM80.3049 41.659H82.143C82.2689 41.659 82.3891 41.6338 82.5066 41.5834C82.6241 41.5331 82.7277 41.4659 82.8172 41.3792C82.9067 41.2925 82.9794 41.1862 83.0326 41.0659C83.0858 40.9428 83.1137 40.8113 83.1137 40.6658C83.1137 40.526 83.0858 40.3945 83.0326 40.2714C82.9794 40.1483 82.9067 40.0448 82.8172 39.9552C82.7277 39.8657 82.6241 39.7958 82.5066 39.7454C82.3891 39.6923 82.2689 39.6671 82.143 39.6671H80.3049V41.659ZM82.4031 44.9126C82.5318 44.9126 82.6633 44.8874 82.7976 44.837C82.9319 44.7867 83.0522 44.714 83.1585 44.6216C83.2648 44.5265 83.3515 44.4118 83.4187 44.2775C83.4858 44.1432 83.5194 43.9866 83.5194 43.8131C83.5194 43.6537 83.4886 43.5082 83.4299 43.3739C83.3711 43.2396 83.29 43.1249 83.1921 43.027C83.0913 42.9291 82.9739 42.8536 82.8396 42.8004C82.7053 42.7472 82.5598 42.7193 82.4087 42.7193H80.3021V44.9126H82.4031Z" fill="#7E8195"/>
<path d="M85.9757 43.2144C85.9757 42.7948 86.054 42.4031 86.2079 42.0338C86.3645 41.6646 86.5799 41.3428 86.8597 41.0687C87.1395 40.7945 87.4724 40.5791 87.8556 40.4196C88.2417 40.2602 88.6614 40.1818 89.1174 40.1818C89.5762 40.1818 89.9986 40.2602 90.3875 40.4196C90.7735 40.5791 91.1065 40.7945 91.3862 41.0687C91.666 41.3428 91.8842 41.6646 92.0408 42.0338C92.1975 42.4031 92.2758 42.7948 92.2758 43.2144C92.2758 43.3067 92.273 43.3823 92.2647 43.4354C92.2563 43.4914 92.2507 43.5445 92.2423 43.5977H87.2989C87.3437 43.8299 87.4248 44.0425 87.5395 44.23C87.657 44.4202 87.7969 44.5797 87.962 44.7111C88.127 44.8426 88.3089 44.9433 88.5103 45.0161C88.7089 45.0888 88.9159 45.1252 89.1258 45.1252C89.4587 45.1252 89.7524 45.0524 90.0098 44.9042C90.2644 44.7559 90.4602 44.5629 90.5945 44.3195H92.0548C91.9625 44.5713 91.8282 44.8119 91.6492 45.0441C91.4701 45.2763 91.2575 45.4805 91.0085 45.6567C90.7596 45.8358 90.4742 45.9757 90.1581 46.082C89.8419 46.1883 89.495 46.2414 89.1174 46.2414C88.6614 46.2414 88.2417 46.1631 87.8556 46.0036C87.4696 45.8442 87.1367 45.6288 86.8597 45.3546C86.5799 45.0804 86.3617 44.7615 86.2079 44.3922C86.054 44.0229 85.9757 43.6313 85.9757 43.2144ZM89.1313 41.2645C88.9019 41.2645 88.6893 41.2981 88.4963 41.368C88.3033 41.438 88.127 41.5331 87.9731 41.6534C87.8193 41.7737 87.6878 41.9219 87.5815 42.0898C87.4752 42.2577 87.394 42.4423 87.3437 42.6437H90.8603C90.8071 42.4451 90.7316 42.2605 90.6281 42.0898C90.5246 41.9219 90.3987 41.7765 90.2504 41.6534C90.1021 41.5303 89.9343 41.4352 89.7468 41.368C89.5594 41.2981 89.3552 41.2645 89.1313 41.2645Z" fill="#7E8195"/>
<path d="M98.881 40.3525L95.5322 48.0291H94.0775L95.0986 45.8302L92.7263 40.3525H94.2202L95.7421 43.9866L95.8092 44.2747L97.4318 40.3581L98.881 40.3525Z" fill="#7E8195"/>
<path d="M99.4209 43.2144C99.4209 42.7948 99.4992 42.4031 99.6531 42.0338C99.8098 41.6646 100.025 41.3428 100.305 41.0687C100.585 40.7945 100.918 40.5791 101.301 40.4196C101.687 40.2602 102.107 40.1818 102.563 40.1818C103.021 40.1818 103.444 40.2602 103.833 40.4196C104.219 40.5791 104.552 40.7945 104.831 41.0687C105.111 41.3428 105.329 41.6646 105.486 42.0338C105.643 42.4031 105.721 42.7948 105.721 43.2144C105.721 43.6369 105.643 44.0313 105.489 44.3978C105.332 44.7643 105.114 45.086 104.834 45.3602C104.552 45.6343 104.219 45.8498 103.833 46.0064C103.447 46.1631 103.021 46.2414 102.557 46.2414C102.101 46.2414 101.681 46.1631 101.298 46.0064C100.915 45.8498 100.585 45.6343 100.308 45.3602C100.031 45.086 99.8126 44.7643 99.6559 44.395C99.4992 44.0257 99.4209 43.6313 99.4209 43.2144ZM100.769 43.2088C100.769 43.483 100.817 43.7348 100.912 43.9614C101.007 44.188 101.136 44.3866 101.298 44.5517C101.46 44.7167 101.651 44.8454 101.872 44.9377C102.09 45.0301 102.325 45.0776 102.577 45.0776C102.828 45.0776 103.063 45.0329 103.282 44.9405C103.5 44.851 103.69 44.7223 103.855 44.5573C104.017 44.3922 104.146 44.1964 104.241 43.967C104.336 43.7376 104.384 43.4858 104.384 43.2116C104.384 42.9403 104.336 42.6913 104.241 42.4647C104.146 42.2381 104.017 42.0422 103.855 41.8772C103.693 41.7149 103.5 41.5862 103.279 41.4939C103.058 41.4016 102.823 41.354 102.577 41.354C102.325 41.354 102.09 41.3988 101.872 41.4911C101.653 41.5806 101.463 41.7093 101.298 41.8744C101.136 42.0394 101.007 42.2353 100.912 42.4647C100.817 42.6885 100.769 42.9375 100.769 43.2088Z" fill="#7E8195"/>
<path d="M112.925 46.0708H111.562V43.0214C111.562 42.7165 111.529 42.4591 111.462 42.2493C111.395 42.0394 111.299 41.866 111.179 41.7317C111.056 41.5974 110.908 41.5023 110.732 41.4436C110.555 41.3848 110.359 41.354 110.141 41.354C109.903 41.354 109.685 41.3988 109.489 41.4855C109.291 41.5723 109.12 41.6953 108.975 41.852C108.829 42.0087 108.717 42.1961 108.639 42.4143C108.558 42.6297 108.519 42.8703 108.519 43.1277V46.0708H107.167V40.3553H108.267L108.368 40.9344C108.485 40.8309 108.619 40.733 108.768 40.6435C108.916 40.5539 109.075 40.4728 109.243 40.4057C109.411 40.3385 109.587 40.2826 109.775 40.2434C109.959 40.2042 110.147 40.1846 110.337 40.1846C110.782 40.1846 111.165 40.2462 111.493 40.3721C111.817 40.4952 112.088 40.677 112.301 40.9176C112.514 41.1554 112.67 41.452 112.774 41.8017C112.875 42.1514 112.928 42.5514 112.928 42.999V46.0708H112.925Z" fill="#7E8195"/>
<path d="M114.175 43.2144C114.175 42.7948 114.248 42.4031 114.391 42.0338C114.536 41.6646 114.741 41.3428 115.003 41.0659C115.269 40.7889 115.588 40.5735 115.963 40.414C116.338 40.2546 116.752 40.1762 117.208 40.1762C117.619 40.1762 117.983 40.2462 118.302 40.3805C118.621 40.5175 118.895 40.691 119.13 40.9036V38.2431H120.481V46.0708H119.326L119.242 45.4049C119.127 45.5224 118.998 45.6343 118.856 45.7351C118.713 45.8358 118.556 45.9253 118.386 46.0008C118.215 46.0764 118.033 46.1379 117.84 46.1827C117.647 46.2274 117.443 46.2498 117.23 46.2498C116.774 46.2498 116.36 46.1715 115.983 46.012C115.608 45.8526 115.286 45.6371 115.017 45.363C114.752 45.0888 114.545 44.7671 114.396 44.3978C114.248 44.0257 114.175 43.6313 114.175 43.2144ZM115.524 43.2088C115.524 43.483 115.571 43.7348 115.669 43.9642C115.764 44.1936 115.896 44.3922 116.064 44.5545C116.232 44.7195 116.425 44.8482 116.646 44.9377C116.867 45.0273 117.107 45.0748 117.362 45.0748C117.614 45.0748 117.851 45.0301 118.072 44.9377C118.293 44.8482 118.489 44.7195 118.654 44.5545C118.819 44.3894 118.951 44.1936 119.046 43.9642C119.141 43.7376 119.191 43.483 119.191 43.206C119.191 42.9347 119.144 42.6857 119.046 42.4591C118.951 42.2325 118.819 42.0366 118.652 41.8716C118.484 41.7093 118.291 41.5806 118.067 41.4883C117.846 41.396 117.605 41.3484 117.351 41.3484C117.096 41.3484 116.856 41.3932 116.635 41.4855C116.413 41.575 116.218 41.7037 116.055 41.8688C115.89 42.0338 115.762 42.2297 115.667 42.4591C115.571 42.6885 115.524 42.9375 115.524 43.2088Z" fill="#7E8195"/>
<path d="M124.913 38.5145H126.295V44.8762H129.705V46.0708H124.913V38.5145Z" fill="#7E8195"/>
<path d="M130.785 38.7355C130.785 38.632 130.804 38.5341 130.846 38.4445C130.888 38.355 130.944 38.2739 131.017 38.2067C131.09 38.1396 131.176 38.0836 131.28 38.0417C131.383 37.9997 131.498 37.9801 131.624 37.9801C131.75 37.9801 131.865 37.9997 131.971 38.0417C132.077 38.0836 132.167 38.1368 132.239 38.2067C132.312 38.2767 132.371 38.355 132.413 38.4445C132.455 38.5341 132.474 38.632 132.474 38.7355C132.474 38.839 132.455 38.9369 132.413 39.0264C132.371 39.116 132.315 39.1971 132.239 39.2642C132.164 39.3342 132.074 39.3873 131.971 39.4265C131.865 39.4657 131.75 39.4852 131.624 39.4852C131.498 39.4852 131.383 39.4657 131.283 39.4265C131.182 39.3873 131.092 39.3342 131.02 39.2642C130.947 39.1971 130.888 39.116 130.846 39.0264C130.807 38.9369 130.785 38.839 130.785 38.7355ZM130.936 40.3525H132.295V46.068H130.936V40.3525Z" fill="#7E8195"/>
<path d="M143.601 46.0708H142.244V42.9934C142.244 42.4255 142.143 42.0115 141.939 41.7485C141.735 41.4855 141.446 41.354 141.071 41.354C140.856 41.354 140.66 41.3904 140.484 41.4631C140.305 41.5359 140.151 41.6394 140.02 41.7709C139.888 41.9052 139.785 42.0674 139.712 42.2632C139.636 42.4591 139.597 42.6773 139.589 42.9207V46.0708H138.229V42.9934C138.229 42.4255 138.128 42.0115 137.924 41.7485C137.72 41.4855 137.432 41.354 137.057 41.354C136.839 41.354 136.637 41.3904 136.455 41.4659C136.271 41.5387 136.117 41.6478 135.985 41.7905C135.857 41.9331 135.756 42.1066 135.683 42.3136C135.611 42.5178 135.574 42.7528 135.574 43.0102V46.0708H134.226V40.3553H135.325L135.42 40.884C135.527 40.7889 135.647 40.6966 135.778 40.6127C135.91 40.5287 136.053 40.4532 136.209 40.3917C136.366 40.3301 136.531 40.2798 136.707 40.2406C136.883 40.2042 137.068 40.1846 137.261 40.1846C137.661 40.1846 138.017 40.2602 138.324 40.4112C138.635 40.5623 138.889 40.7777 139.094 41.0547C139.205 40.9372 139.334 40.8253 139.48 40.719C139.625 40.6127 139.787 40.5203 139.966 40.442C140.145 40.3637 140.339 40.2993 140.551 40.2518C140.761 40.2042 140.99 40.1818 141.234 40.1818C141.611 40.1818 141.947 40.2434 142.241 40.3693C142.535 40.4924 142.784 40.6742 142.985 40.9092C143.186 41.1442 143.34 41.4352 143.447 41.7793C143.553 42.1234 143.606 42.515 143.606 42.9571V46.0708H143.601Z" fill="#7E8195"/>
<path d="M145.086 38.7355C145.086 38.632 145.106 38.5341 145.148 38.4445C145.19 38.355 145.245 38.2739 145.318 38.2067C145.391 38.1396 145.478 38.0836 145.581 38.0417C145.685 37.9997 145.799 37.9801 145.925 37.9801C146.051 37.9801 146.166 37.9997 146.272 38.0417C146.379 38.0836 146.468 38.1368 146.541 38.2067C146.614 38.2767 146.672 38.355 146.714 38.4445C146.756 38.5341 146.776 38.632 146.776 38.7355C146.776 38.839 146.756 38.9369 146.714 39.0264C146.672 39.116 146.616 39.1971 146.541 39.2642C146.465 39.3342 146.376 39.3873 146.272 39.4265C146.166 39.4657 146.051 39.4852 145.925 39.4852C145.799 39.4852 145.685 39.4657 145.584 39.4265C145.483 39.3873 145.394 39.3342 145.321 39.2642C145.248 39.1971 145.19 39.116 145.148 39.0264C145.106 38.9369 145.086 38.839 145.086 38.7355ZM145.234 40.3525H146.594V46.068H145.234V40.3525Z" fill="#7E8195"/>
<path d="M149.201 38.7299L150.189 38.7243V40.3525H152.01V41.5191H150.183V43.8579C150.183 44.0873 150.211 44.2775 150.264 44.4286C150.318 44.5797 150.39 44.6972 150.48 44.7839C150.569 44.8706 150.676 44.9322 150.799 44.9685C150.922 45.0049 151.051 45.0217 151.188 45.0217H152.167L152.156 46.1323H151.062C150.754 46.1323 150.466 46.1015 150.194 46.0372C149.923 45.9757 149.688 45.8582 149.489 45.6903C149.291 45.5224 149.131 45.2902 149.014 44.9993C148.896 44.7055 148.838 44.3307 148.838 43.8719V41.5219H147.881V40.4784L148.804 40.2238L149.201 38.7299Z" fill="#7E8195"/>
<path d="M153.235 43.2144C153.235 42.7948 153.308 42.4031 153.454 42.0338C153.599 41.6646 153.806 41.3428 154.075 41.0687C154.343 40.7945 154.665 40.5791 155.043 40.4196C155.418 40.2602 155.837 40.1818 156.296 40.1818C156.511 40.1818 156.716 40.2042 156.909 40.2462C157.102 40.2881 157.286 40.3469 157.457 40.4196C157.628 40.4924 157.784 40.5763 157.927 40.6742C158.07 40.7721 158.196 40.8756 158.307 40.982L158.386 40.3553H159.541V46.0708H158.386L158.307 45.4441C158.193 45.556 158.064 45.6595 157.919 45.7546C157.773 45.8498 157.616 45.9365 157.449 46.0064C157.281 46.0792 157.099 46.1351 156.903 46.1799C156.71 46.2218 156.503 46.2442 156.29 46.2442C155.834 46.2442 155.42 46.1659 155.043 46.0092C154.668 45.8526 154.346 45.6371 154.077 45.363C153.812 45.0888 153.605 44.7671 153.456 44.3978C153.308 44.0257 153.235 43.6313 153.235 43.2144ZM154.584 43.2088C154.584 43.483 154.631 43.7348 154.729 43.9642C154.824 44.1936 154.956 44.3922 155.124 44.5545C155.292 44.7195 155.485 44.8482 155.706 44.9377C155.927 45.0273 156.167 45.0748 156.422 45.0748C156.674 45.0748 156.911 45.0301 157.132 44.9377C157.353 44.8482 157.549 44.7195 157.714 44.5545C157.879 44.3894 158.011 44.1936 158.106 43.9642C158.201 43.7376 158.252 43.483 158.252 43.206C158.252 42.9347 158.204 42.6857 158.106 42.4591C158.011 42.2325 157.879 42.0366 157.712 41.8716C157.544 41.7093 157.351 41.5806 157.127 41.4883C156.906 41.396 156.665 41.3484 156.411 41.3484C156.156 41.3484 155.916 41.3932 155.695 41.4855C155.473 41.575 155.278 41.7037 155.115 41.8688C154.95 42.0338 154.822 42.2297 154.727 42.4591C154.631 42.6885 154.584 42.9375 154.584 43.2088Z" fill="#7E8195"/>
<path d="M162.062 38.7299L163.049 38.7243V40.3525H164.871V41.5191H163.044V43.8579C163.044 44.0873 163.072 44.2775 163.125 44.4286C163.178 44.5797 163.251 44.6972 163.34 44.7839C163.43 44.8706 163.536 44.9322 163.659 44.9685C163.782 45.0049 163.911 45.0217 164.048 45.0217H165.027L165.016 46.1323H163.922C163.614 46.1323 163.326 46.1015 163.055 46.0372C162.784 45.9757 162.549 45.8582 162.35 45.6903C162.151 45.5224 161.992 45.2902 161.874 44.9993C161.757 44.7055 161.698 44.3307 161.698 43.8719V41.5219H160.741V40.4784L161.665 40.2238L162.062 38.7299Z" fill="#7E8195"/>
<path d="M166.278 38.7355C166.278 38.632 166.297 38.5341 166.339 38.4445C166.381 38.355 166.437 38.2739 166.51 38.2067C166.583 38.1396 166.669 38.0836 166.773 38.0417C166.876 37.9997 166.991 37.9801 167.117 37.9801C167.243 37.9801 167.358 37.9997 167.464 38.0417C167.57 38.0836 167.66 38.1368 167.733 38.2067C167.805 38.2767 167.864 38.355 167.906 38.4445C167.948 38.5341 167.968 38.632 167.968 38.7355C167.968 38.839 167.948 38.9369 167.906 39.0264C167.864 39.116 167.808 39.1971 167.733 39.2642C167.657 39.3342 167.567 39.3873 167.464 39.4265C167.358 39.4657 167.243 39.4852 167.117 39.4852C166.991 39.4852 166.876 39.4657 166.776 39.4265C166.675 39.3873 166.586 39.3342 166.513 39.2642C166.44 39.1971 166.381 39.116 166.339 39.0264C166.3 38.9369 166.278 38.839 166.278 38.7355ZM166.429 40.3525H167.789V46.068H166.429V40.3525Z" fill="#7E8195"/>
<path d="M169.389 43.2144C169.389 42.7948 169.467 42.4031 169.621 42.0338C169.778 41.6646 169.993 41.3428 170.273 41.0687C170.553 40.7945 170.885 40.5791 171.269 40.4196C171.655 40.2602 172.074 40.1818 172.53 40.1818C172.989 40.1818 173.412 40.2602 173.801 40.4196C174.187 40.5791 174.52 40.7945 174.799 41.0687C175.079 41.3428 175.297 41.6646 175.454 42.0338C175.611 42.4031 175.689 42.7948 175.689 43.2144C175.689 43.6369 175.611 44.0313 175.457 44.3978C175.3 44.7643 175.082 45.086 174.802 45.3602C174.52 45.6343 174.187 45.8498 173.801 46.0064C173.414 46.1631 172.989 46.2414 172.525 46.2414C172.069 46.2414 171.649 46.1631 171.266 46.0064C170.883 45.8498 170.553 45.6343 170.276 45.3602C169.999 45.086 169.78 44.7643 169.624 44.395C169.467 44.0257 169.389 43.6313 169.389 43.2144ZM170.74 43.2088C170.74 43.483 170.788 43.7348 170.883 43.9614C170.978 44.188 171.106 44.3866 171.269 44.5517C171.431 44.7167 171.621 44.8454 171.842 44.9377C172.06 45.0301 172.295 45.0776 172.547 45.0776C172.799 45.0776 173.034 45.0329 173.252 44.9405C173.47 44.851 173.661 44.7223 173.826 44.5573C173.988 44.3922 174.117 44.1964 174.212 43.967C174.307 43.7376 174.354 43.4858 174.354 43.2116C174.354 42.9403 174.307 42.6913 174.212 42.4647C174.117 42.2381 173.988 42.0422 173.826 41.8772C173.663 41.7149 173.47 41.5862 173.249 41.4939C173.028 41.4016 172.793 41.354 172.547 41.354C172.295 41.354 172.06 41.3988 171.842 41.4911C171.624 41.5806 171.434 41.7093 171.269 41.8744C171.106 42.0394 170.978 42.2353 170.883 42.4647C170.788 42.6885 170.74 42.9375 170.74 43.2088Z" fill="#7E8195"/>
<path d="M182.896 46.0708H181.533V43.0214C181.533 42.7165 181.5 42.4591 181.432 42.2493C181.365 42.0394 181.27 41.866 181.15 41.7317C181.027 41.5974 180.878 41.5023 180.702 41.4436C180.526 41.3848 180.33 41.354 180.112 41.354C179.874 41.354 179.656 41.3988 179.46 41.4855C179.261 41.5723 179.091 41.6953 178.945 41.852C178.8 42.0087 178.688 42.1961 178.61 42.4143C178.528 42.6297 178.489 42.8703 178.489 43.1277V46.0708H177.138V40.3553H178.238L178.338 40.9344C178.456 40.8309 178.59 40.733 178.738 40.6435C178.887 40.5539 179.046 40.4728 179.214 40.4057C179.382 40.3385 179.558 40.2826 179.745 40.2434C179.93 40.2042 180.118 40.1846 180.308 40.1846C180.753 40.1846 181.136 40.2462 181.463 40.3721C181.788 40.4952 182.059 40.677 182.272 40.9176C182.484 41.1554 182.641 41.452 182.744 41.8017C182.845 42.1514 182.898 42.5514 182.898 42.999V46.0708H182.896Z" fill="#7E8195"/>
<path d="M185.285 44.3475C185.287 44.4538 185.321 44.5573 185.383 44.6524C185.444 44.7475 185.525 44.8314 185.629 44.9014C185.732 44.9713 185.853 45.0273 185.99 45.0692C186.127 45.1112 186.275 45.1308 186.434 45.1308C186.865 45.1308 187.181 45.0664 187.386 44.9406C187.59 44.8119 187.691 44.6384 187.691 44.4202C187.691 44.2971 187.654 44.1964 187.579 44.1153C187.503 44.0341 187.397 43.9642 187.257 43.911C187.117 43.8551 186.944 43.8075 186.739 43.7628C186.535 43.7208 186.303 43.676 186.046 43.6257C185.917 43.6061 185.78 43.5837 185.637 43.5529C185.494 43.5222 185.352 43.483 185.212 43.4326C185.072 43.3823 184.938 43.3179 184.809 43.2424C184.68 43.1641 184.568 43.069 184.471 42.9571C184.373 42.8452 184.294 42.7081 184.236 42.5514C184.177 42.3947 184.146 42.2073 184.146 41.9919C184.146 41.7261 184.194 41.4827 184.292 41.2617C184.387 41.0407 184.538 40.8505 184.742 40.6882C184.946 40.526 185.204 40.4029 185.52 40.3133C185.836 40.2238 186.211 40.179 186.647 40.179C186.991 40.179 187.302 40.2238 187.579 40.3133C187.856 40.4029 188.088 40.526 188.281 40.6854C188.474 40.8449 188.622 41.0351 188.726 41.2589C188.829 41.4799 188.882 41.7233 188.882 41.9863L187.531 41.9807C187.517 41.7821 187.422 41.617 187.249 41.4855C187.075 41.3568 186.843 41.2897 186.555 41.2897C186.365 41.2897 186.205 41.3093 186.071 41.3484C185.937 41.3876 185.827 41.438 185.743 41.5023C185.66 41.5667 185.595 41.6394 185.553 41.7205C185.511 41.8045 185.492 41.8912 185.492 41.9779C185.492 42.0814 185.52 42.1681 185.576 42.2381C185.632 42.308 185.715 42.3668 185.825 42.4171C185.936 42.4647 186.076 42.5066 186.247 42.5402C186.418 42.5738 186.616 42.6046 186.846 42.6297C187.123 42.6745 187.397 42.7277 187.668 42.7948C187.94 42.8591 188.18 42.9543 188.39 43.0746C188.6 43.1949 188.77 43.3571 188.902 43.5585C189.031 43.7572 189.095 44.0173 189.095 44.3307C189.095 44.6524 189.031 44.9322 188.902 45.1728C188.773 45.4105 188.589 45.612 188.351 45.7686C188.113 45.9281 187.828 46.0484 187.495 46.1267C187.162 46.2051 186.79 46.247 186.384 46.247C185.976 46.247 185.62 46.1911 185.318 46.0764C185.013 45.9645 184.762 45.8162 184.56 45.6344C184.359 45.4525 184.208 45.2483 184.107 45.0245C184.006 44.7979 183.956 44.5713 183.956 44.3419L185.285 44.3475Z" fill="#7E8195"/>
<path d="M190.138 45.4581C190.138 45.3546 190.158 45.2567 190.194 45.1672C190.231 45.0776 190.284 44.9965 190.357 44.9266C190.427 44.8566 190.511 44.8007 190.606 44.7587C190.701 44.7167 190.81 44.6972 190.927 44.6972C191.045 44.6972 191.154 44.7167 191.249 44.7587C191.344 44.8007 191.428 44.8538 191.498 44.9266C191.568 44.9965 191.621 45.0776 191.66 45.1672C191.697 45.2567 191.716 45.3546 191.716 45.4581C191.716 45.5616 191.697 45.6595 191.66 45.7491C191.624 45.8386 191.571 45.9197 191.498 45.9869C191.428 46.0568 191.344 46.1099 191.249 46.1491C191.154 46.1883 191.045 46.2079 190.927 46.2079C190.81 46.2079 190.701 46.1883 190.606 46.1463C190.511 46.1044 190.427 46.0512 190.357 45.9813C190.287 45.9141 190.234 45.833 190.194 45.7435C190.158 45.6539 190.138 45.5588 190.138 45.4581Z" fill="#7E8195"/>
<path d="M193.101 45.4581C193.101 45.3546 193.121 45.2567 193.157 45.1672C193.193 45.0776 193.247 44.9965 193.319 44.9266C193.389 44.8566 193.473 44.8007 193.568 44.7587C193.663 44.7167 193.773 44.6972 193.89 44.6972C194.008 44.6972 194.117 44.7167 194.212 44.7587C194.307 44.8007 194.391 44.8538 194.461 44.9266C194.531 44.9965 194.584 45.0776 194.623 45.1672C194.659 45.2567 194.679 45.3546 194.679 45.4581C194.679 45.5616 194.659 45.6595 194.623 45.7491C194.587 45.8386 194.534 45.9197 194.461 45.9869C194.391 46.0568 194.307 46.1099 194.212 46.1491C194.117 46.1883 194.008 46.2079 193.89 46.2079C193.773 46.2079 193.663 46.1883 193.568 46.1463C193.473 46.1044 193.389 46.0512 193.319 45.9813C193.249 45.9141 193.196 45.833 193.157 45.7435C193.118 45.6539 193.101 45.5588 193.101 45.4581Z" fill="#7E8195"/>
<path d="M196.061 45.4581C196.061 45.3546 196.081 45.2567 196.117 45.1672C196.153 45.0776 196.206 44.9965 196.279 44.9266C196.349 44.8566 196.433 44.8007 196.528 44.7587C196.623 44.7167 196.732 44.6972 196.85 44.6972C196.967 44.6972 197.077 44.7167 197.172 44.7587C197.267 44.8007 197.351 44.8538 197.421 44.9266C197.491 44.9965 197.544 45.0776 197.583 45.1672C197.619 45.2567 197.639 45.3546 197.639 45.4581C197.639 45.5616 197.619 45.6595 197.583 45.7491C197.547 45.8386 197.493 45.9197 197.421 45.9869C197.351 46.0568 197.267 46.1099 197.172 46.1491C197.077 46.1883 196.967 46.2079 196.85 46.2079C196.732 46.2079 196.623 46.1883 196.528 46.1463C196.433 46.1044 196.349 46.0512 196.279 45.9813C196.209 45.9141 196.156 45.833 196.117 45.7435C196.081 45.6539 196.061 45.5588 196.061 45.4581Z" fill="#7E8195"/>
<path d="M58.1508 46.454C57.8123 46.454 57.4626 46.4345 57.1129 46.3953L56.6681 46.3449L56.5618 45.9225C56.3771 45.1895 56.3603 41.1722 56.4974 40.0979L56.5646 39.5776L57.1045 39.5496C57.1884 39.5468 57.2751 39.5412 57.3619 39.5356C57.5633 39.5244 57.7731 39.5132 57.9857 39.5076C58.5033 39.4964 58.9201 39.3482 59.1943 39.0768C59.4712 38.8054 59.6167 38.3914 59.6195 37.885L59.6223 37.4038C59.6335 35.4147 59.6419 33.3557 59.6167 31.3359C59.5887 29.1062 60.1595 27.2374 61.3624 25.6288C61.3372 25.5896 61.3121 25.5476 61.2869 25.5085C61.0827 25.1811 60.87 24.8426 60.6714 24.4985C59.9776 23.2928 59.6335 21.9219 59.6251 20.3133C59.6111 17.4989 59.6111 15.3504 59.6279 13.3389C59.6335 12.7374 59.4237 12.3066 58.9481 11.9457C58.6572 11.7247 58.2655 11.6744 57.8123 11.6128L57.7731 11.6072C57.6612 11.5932 57.5353 11.5876 57.3731 11.5848C57.2835 11.582 57.1828 11.5792 57.0681 11.5736L56.4554 11.5457V4.93216L57.0178 4.86501C57.4961 4.80627 57.927 4.77829 58.3326 4.77829C59.0908 4.77829 59.7734 4.87621 60.414 5.08043C63.8299 6.1631 65.9141 8.40957 66.6051 11.7639C66.7058 12.2451 66.7562 12.743 66.759 13.241C66.7674 14.8217 66.7674 16.4303 66.7674 17.9829C66.7674 18.7243 66.7674 19.4657 66.7674 20.2098C66.7674 21.3904 67.1758 21.8884 68.3844 22.1877C68.5075 22.2185 68.597 22.2688 68.6613 22.308C68.6837 22.3192 68.7033 22.3332 68.7257 22.3444L69.0614 22.5206V28.8096L68.6222 28.9523C68.6026 28.9579 68.5774 28.9691 68.5494 28.9775C68.4571 29.0111 68.3312 29.0614 68.1802 29.0782C67.2346 29.1845 66.7478 30.0769 66.759 30.6784C66.7814 31.7079 66.7758 32.7542 66.7702 33.7642C66.7674 34.1894 66.7674 34.6314 66.7674 35.065C66.7674 35.3756 66.7702 35.6945 66.773 36.0022C66.7786 36.6821 66.787 37.387 66.7618 38.0836C66.6443 41.382 65.0608 43.8691 62.059 45.4777C60.8533 46.1267 59.5356 46.454 58.1508 46.454Z" fill="#1F63FB"/>
<path d="M48.2333 15.2357H44.2188H42.2884V17.2248V32.9053L26.6107 15.8568L26.04 15.2357H25.2091H21.8268H19.8965V17.2248V39.5216H19.8909C19.807 39.5188 13.6411 39.544 13.5543 39.5412C13.3529 39.53 13.1431 39.5188 12.9305 39.5132C12.4129 39.502 11.9961 39.3538 11.7219 39.0824C11.445 38.811 11.2995 38.397 11.2967 37.8906L11.2939 37.4094C11.2827 35.4203 11.2743 33.3613 11.2995 31.3414C11.3275 29.1118 10.7567 27.243 9.55378 25.6344C9.57896 25.5952 9.60413 25.5532 9.62931 25.5141C9.83354 25.1867 10.0462 24.8482 10.2448 24.5041C10.9386 23.2984 11.2827 21.9275 11.2911 20.3189C11.3051 17.5045 11.3051 15.356 11.2883 13.3445C11.2827 12.743 11.4925 12.3122 11.9681 11.9513C12.259 11.7303 12.6507 11.68 13.1039 11.6184L13.1431 11.6128C13.255 11.5988 13.3809 11.5932 13.5431 11.5904C13.6327 11.5876 13.7334 11.5848 13.8481 11.5792L14.4608 11.5513V4.93216L13.8984 4.86501C13.4201 4.80627 12.9892 4.77829 12.5836 4.77829C11.8254 4.77829 11.1428 4.87621 10.5022 5.08043C7.0863 6.1631 5.00209 8.40957 4.31109 11.7639C4.21037 12.2451 4.16001 12.743 4.15722 13.241C4.14882 14.8217 4.14882 16.4303 4.14882 17.9829C4.14882 18.7243 4.14882 19.4657 4.14882 20.2098C4.14882 21.3904 3.74038 21.8884 2.53182 22.1877C2.40872 22.2185 2.3192 22.2688 2.25485 22.308C2.23247 22.3192 2.21289 22.3332 2.19051 22.3444L1.8548 22.5206V28.8096L2.29402 28.9523C2.3136 28.9579 2.33878 28.9691 2.36676 28.9775C2.45908 29.0111 2.58497 29.0614 2.73604 29.0782C3.68163 29.1845 4.16841 30.0769 4.15722 30.6784C4.13484 31.7079 4.14043 32.7542 4.14603 33.7642C4.14882 34.1894 4.14882 34.6314 4.14882 35.065C4.14882 35.3756 4.14603 35.6945 4.14323 36.0022C4.13763 36.6821 4.12924 37.387 4.15442 38.0836C4.27192 41.382 5.85536 43.8691 8.85718 45.4777C10.0657 46.1239 11.3806 46.454 12.7682 46.454C16.7464 46.454 27.7773 45.9813 27.7773 45.9813V45.9617H27.7801V43.9726V28.3284L43.4354 45.3406L44.0061 45.9617H44.8342H48.2361H50.1664V43.9726V17.2248V15.2357H48.2333Z" fill="#1F63FB"/>
<path d="M56.1365 10.435H50.4126V15.6637H56.1365V10.435Z" fill="#0E1226"/>
<path d="M50.4098 6.32256H45.9085V10.435H50.4098V6.32256Z" fill="#0E1226"/>
<path d="M53.9292 3.38229H50.7092V6.32536H53.9292V3.38229Z" fill="#0E1226"/>
<path d="M50.7092 1.06868H48.1746V3.38229H50.7092V1.06868Z" fill="#0E1226"/>
</svg>
