<svg xmlns="http://www.w3.org/2000/svg" width="80" height="50" viewBox="-2 0 75 50" fill="none">


























<path d="M58.1508 46.454C57.8123 46.454 57.4626 46.4345 57.1129 46.3953L56.6681 46.3449L56.5618 45.9225C56.3771 45.1895 56.3603 41.1722 56.4974 40.0979L56.5646 39.5776L57.1045 39.5496C57.1884 39.5468 57.2751 39.5412 57.3619 39.5356C57.5633 39.5244 57.7731 39.5132 57.9857 39.5076C58.5033 39.4964 58.9201 39.3482 59.1943 39.0768C59.4712 38.8054 59.6167 38.3914 59.6195 37.885L59.6223 37.4038C59.6335 35.4147 59.6419 33.3557 59.6167 31.3359C59.5887 29.1062 60.1595 27.2374 61.3624 25.6288C61.3372 25.5896 61.3121 25.5476 61.2869 25.5085C61.0827 25.1811 60.87 24.8426 60.6714 24.4985C59.9776 23.2928 59.6335 21.9219 59.6251 20.3133C59.6111 17.4989 59.6111 15.3504 59.6279 13.3389C59.6335 12.7374 59.4237 12.3066 58.9481 11.9457C58.6572 11.7247 58.2655 11.6744 57.8123 11.6128L57.7731 11.6072C57.6612 11.5932 57.5353 11.5876 57.3731 11.5848C57.2835 11.582 57.1828 11.5792 57.0681 11.5736L56.4554 11.5457V4.93216L57.0178 4.86501C57.4961 4.80627 57.927 4.77829 58.3326 4.77829C59.0908 4.77829 59.7734 4.87621 60.414 5.08043C63.8299 6.1631 65.9141 8.40957 66.6051 11.7639C66.7058 12.2451 66.7562 12.743 66.759 13.241C66.7674 14.8217 66.7674 16.4303 66.7674 17.9829C66.7674 18.7243 66.7674 19.4657 66.7674 20.2098C66.7674 21.3904 67.1758 21.8884 68.3844 22.1877C68.5075 22.2185 68.597 22.2688 68.6613 22.308C68.6837 22.3192 68.7033 22.3332 68.7257 22.3444L69.0614 22.5206V28.8096L68.6222 28.9523C68.6026 28.9579 68.5774 28.9691 68.5494 28.9775C68.4571 29.0111 68.3312 29.0614 68.1802 29.0782C67.2346 29.1845 66.7478 30.0769 66.759 30.6784C66.7814 31.7079 66.7758 32.7542 66.7702 33.7642C66.7674 34.1894 66.7674 34.6314 66.7674 35.065C66.7674 35.3756 66.7702 35.6945 66.773 36.0022C66.7786 36.6821 66.787 37.387 66.7618 38.0836C66.6443 41.382 65.0608 43.8691 62.059 45.4777C60.8533 46.1267 59.5356 46.454 58.1508 46.454Z" fill="#1F63FB"></path>
<path d="M48.2333 15.2357H44.2188H42.2884V17.2248V32.9053L26.6107 15.8568L26.04 15.2357H25.2091H21.8268H19.8965V17.2248V39.5216H19.8909C19.807 39.5188 13.6411 39.544 13.5543 39.5412C13.3529 39.53 13.1431 39.5188 12.9305 39.5132C12.4129 39.502 11.9961 39.3538 11.7219 39.0824C11.445 38.811 11.2995 38.397 11.2967 37.8906L11.2939 37.4094C11.2827 35.4203 11.2743 33.3613 11.2995 31.3414C11.3275 29.1118 10.7567 27.243 9.55378 25.6344C9.57896 25.5952 9.60413 25.5532 9.62931 25.5141C9.83354 25.1867 10.0462 24.8482 10.2448 24.5041C10.9386 23.2984 11.2827 21.9275 11.2911 20.3189C11.3051 17.5045 11.3051 15.356 11.2883 13.3445C11.2827 12.743 11.4925 12.3122 11.9681 11.9513C12.259 11.7303 12.6507 11.68 13.1039 11.6184L13.1431 11.6128C13.255 11.5988 13.3809 11.5932 13.5431 11.5904C13.6327 11.5876 13.7334 11.5848 13.8481 11.5792L14.4608 11.5513V4.93216L13.8984 4.86501C13.4201 4.80627 12.9892 4.77829 12.5836 4.77829C11.8254 4.77829 11.1428 4.87621 10.5022 5.08043C7.0863 6.1631 5.00209 8.40957 4.31109 11.7639C4.21037 12.2451 4.16001 12.743 4.15722 13.241C4.14882 14.8217 4.14882 16.4303 4.14882 17.9829C4.14882 18.7243 4.14882 19.4657 4.14882 20.2098C4.14882 21.3904 3.74038 21.8884 2.53182 22.1877C2.40872 22.2185 2.3192 22.2688 2.25485 22.308C2.23247 22.3192 2.21289 22.3332 2.19051 22.3444L1.8548 22.5206V28.8096L2.29402 28.9523C2.3136 28.9579 2.33878 28.9691 2.36676 28.9775C2.45908 29.0111 2.58497 29.0614 2.73604 29.0782C3.68163 29.1845 4.16841 30.0769 4.15722 30.6784C4.13484 31.7079 4.14043 32.7542 4.14603 33.7642C4.14882 34.1894 4.14882 34.6314 4.14882 35.065C4.14882 35.3756 4.14603 35.6945 4.14323 36.0022C4.13763 36.6821 4.12924 37.387 4.15442 38.0836C4.27192 41.382 5.85536 43.8691 8.85718 45.4777C10.0657 46.1239 11.3806 46.454 12.7682 46.454C16.7464 46.454 27.7773 45.9813 27.7773 45.9813V45.9617H27.7801V43.9726V28.3284L43.4354 45.3406L44.0061 45.9617H44.8342H48.2361H50.1664V43.9726V17.2248V15.2357H48.2333Z" fill="#1F63FB"></path>
<path d="M56.1365 10.435H50.4126V15.6637H56.1365V10.435Z" fill="#fff"></path>
<path d="M50.4098 6.32256H45.9085V10.435H50.4098V6.32256Z" fill="#fff"></path>
<path d="M53.9292 3.38229H50.7092V6.32536H53.9292V3.38229Z" fill="#fff"></path>
<path d="M50.7092 1.06868H48.1746V3.38229H50.7092V1.06868Z" fill="#fff"></path>
</svg>